<svg xmlns="http://www.w3.org/2000/svg" xmlns:svg="http://www.w3.org/2000/svg" id="Foreground" width="32" height="32" x="0" y="0" enable-background="new 0 0 16 16" version="1.0" viewBox="0 0 32 32" xml:space="preserve"><metadata id="metadata2399"/><defs id="defs2397"><linearGradient id="linearGradient3173"><stop id="stop3175" offset="0" stop-color="#c4c4c4" stop-opacity="1"/><stop id="stop3177" offset="1" stop-color="#fff" stop-opacity="1"/></linearGradient></defs><path id="path883" fill="#a5c8ec" fill-opacity="1" fill-rule="nonzero" stroke="#2975c4" stroke-dasharray="none" stroke-dashoffset="0" stroke-linecap="butt" stroke-linejoin="miter" stroke-miterlimit="4" stroke-opacity="1" stroke-width="4" d="m 4.4362021,16 c 0,-6.410121 5.1728276,-11.60728 11.5529359,-11.60728 6.380109,0 11.552937,5.197159 11.552937,11.60728 0,6.410122 -5.172828,11.607281 -11.552937,11.607281 C 9.6090297,27.607281 4.4362021,22.410122 4.4362021,16 Z" clip-rule="evenodd" color="#000" display="inline" enable-background="accumulate" overflow="visible" visibility="visible" style="marker:none"/><path id="path887" fill="#4a90d9" fill-opacity="1" fill-rule="nonzero" stroke="none" stroke-width="1.88" d="m 11.718386,11.764547 h 1.055207 c 0.01091,-1.26e-4 0.02193,-4.86e-4 0.03298,0 0.269026,0.01183 0.538019,0.135679 0.725455,0.329752 l 2.407192,2.407192 2.440166,-2.407192 c 0.28029,-0.243226 0.471333,-0.322366 0.725455,-0.329752 h 1.055207 v 1.055208 c 0,0.302285 -0.03623,0.581049 -0.263801,0.791405 l -2.407191,2.407191 2.374217,2.374216 c 0.198577,0.198559 0.296768,0.478484 0.296775,0.758432 v 1.055206 h -1.055211 c -0.279947,-10e-6 -0.559877,-0.09824 -0.75843,-0.296777 l -2.407192,-2.407192 -2.407192,2.407192 c -0.198551,0.198579 -0.478493,0.296777 -0.758429,0.296777 H 11.71839 v -1.055206 c -3e-6,-0.279936 0.0982,-0.559873 0.296777,-0.758432 L 14.422359,16.018351 12.015167,13.61116 C 11.79279,13.405784 11.69527,13.116003 11.71839,12.819755 Z" color="#bebebe" direction="ltr" display="inline" enable-background="new" font-family="Andale Mono" font-size="medium" font-stretch="normal" font-style="normal" font-variant="normal" font-weight="normal" letter-spacing="normal" overflow="visible" text-anchor="start" text-decoration="none" visibility="visible" word-spacing="normal" writing-mode="lr-tb" style="line-height:normal;-inkscape-font-specification:'Andale Mono';text-indent:0;text-align:start;text-decoration-line:none;text-transform:none;marker:none"/></svg>