<svg xmlns="http://www.w3.org/2000/svg" xmlns:svg="http://www.w3.org/2000/svg" xmlns:xlink="http://www.w3.org/1999/xlink" id="svg8" width="300" height="300" version="1.1" viewBox="0 0 79.375 79.375"><defs id="defs2"><linearGradient id="linearGradient4168"><stop id="stop4164" offset="0" stop-color="#565061" stop-opacity="1"/><stop id="stop4166" offset="1" stop-color="#4d465d" stop-opacity="1"/></linearGradient><linearGradient id="linearGradient4125"><stop id="stop4121" offset="0" stop-color="#332e3d" stop-opacity="1"/><stop id="stop4123" offset="1" stop-color="#4d465d" stop-opacity="1"/></linearGradient><linearGradient id="linearGradient4098"><stop id="stop4094" offset="0" stop-color="#5e576d" stop-opacity="1"/><stop id="stop4096" offset="1" stop-color="#4f495c" stop-opacity="1"/></linearGradient><linearGradient id="linearGradient861"><stop id="stop857" offset="0" stop-color="#e9e9eb" stop-opacity="1"/><stop id="stop859" offset="1" stop-color="#f1f7f9" stop-opacity="1"/></linearGradient><filter id="filter865" width="1.048" height="1.048" x="-.024" y="-.024" color-interpolation-filters="sRGB"><feGaussianBlur id="feGaussianBlur867" stdDeviation=".767"/></filter><filter id="filter871" width="1.048" height="1.048" x="-.024" y="-.024" color-interpolation-filters="sRGB"><feGaussianBlur id="feGaussianBlur873" stdDeviation=".717"/></filter><radialGradient id="radialGradient4102" cx="48.493" cy="247.2" r="14.303" fx="48.493" fy="247.2" gradientTransform="matrix(1.9034238,-0.13257761,-0.06059928,1.1506523,-27.928345,-34.095099)" gradientUnits="userSpaceOnUse" xlink:href="#linearGradient4098"/><radialGradient id="radialGradient4129" cx="48.493" cy="247.2" r="14.303" fx="48.493" fy="247.2" gradientTransform="matrix(1.9034238,-0.13257761,-0.06059928,1.1506523,-27.928345,-34.095099)" gradientUnits="userSpaceOnUse" xlink:href="#linearGradient4098"/><radialGradient id="radialGradient4127-7" cx="150" cy="210.068" r="75.988" fx="150" fy="210.068" gradientTransform="matrix(1,0,0,0.23631315,0,160.42644)" gradientUnits="userSpaceOnUse" xlink:href="#linearGradient4125"/><linearGradient id="linearGradient4160" x1="42.506" x2="42.506" y1="292.173" y2="222.723" gradientUnits="userSpaceOnUse" xlink:href="#linearGradient861"/><linearGradient id="linearGradient4162" x1="40.321" x2="40.321" y1="277.075" y2="266.264" gradientUnits="userSpaceOnUse" xlink:href="#linearGradient4168"/><linearGradient id="linearGradient4185" x1="40.321" x2="40.321" y1="277.075" y2="266.264" gradientTransform="translate(0,2.5958987e-6)" gradientUnits="userSpaceOnUse" xlink:href="#linearGradient4168"/></defs><metadata id="metadata5"/><g id="layer1" transform="translate(0,-217.62498)"><circle clip-rule="nonzero" style="isolation:auto;mix-blend-mode:normal;solid-color:#000;solid-opacity:1;marker:none" id="path815" cx="39.688" cy="257.312" r="38.365" fill="#000" fill-opacity=".033" fill-rule="nonzero" stroke="none" stroke-dasharray="none" stroke-dashoffset="0" stroke-linecap="butt" stroke-linejoin="miter" stroke-miterlimit="4" stroke-opacity="1" stroke-width=".195" marker-end="none" marker-mid="none" marker-start="none" color="#000" color-interpolation="sRGB" color-interpolation-filters="linearRGB" color-rendering="auto" display="inline" enable-background="accumulate" filter="url(#filter865)" image-rendering="auto" opacity="1" overflow="visible" paint-order="normal" shape-rendering="auto" text-rendering="auto" transform="matrix(0.98539476,0,0,0.98539476,0.57964631,3.7581112)" vector-effect="none" visibility="visible"/><circle id="circle855" cx="39.688" cy="257.448" r="37.042" fill="url(#linearGradient4160)" fill-opacity="1" fill-rule="nonzero" stroke="#bfbfbf" stroke-dasharray="none" stroke-dashoffset="0" stroke-linecap="butt" stroke-linejoin="miter" stroke-miterlimit="4" stroke-opacity="1" stroke-width=".188" marker-end="none" marker-mid="none" marker-start="none" clip-rule="nonzero" color="#000" color-interpolation="sRGB" color-interpolation-filters="linearRGB" color-rendering="auto" display="inline" enable-background="accumulate" image-rendering="auto" opacity="1" overflow="visible" paint-order="normal" shape-rendering="auto" text-rendering="auto" vector-effect="none" visibility="visible" style="isolation:auto;mix-blend-mode:normal;solid-color:#000;solid-opacity:1;marker:none"/><circle clip-rule="nonzero" style="isolation:auto;mix-blend-mode:normal;solid-color:#000;solid-opacity:1;marker:none" id="circle869" cx="39.688" cy="257.312" r="35.845" fill="none" fill-opacity="1" fill-rule="nonzero" stroke="#bbf2fd" stroke-dasharray="none" stroke-dashoffset="0" stroke-linecap="butt" stroke-linejoin="miter" stroke-miterlimit="4" stroke-opacity=".225" stroke-width="1.44" marker-end="none" marker-mid="none" marker-start="none" color="#000" color-interpolation="sRGB" color-interpolation-filters="linearRGB" color-rendering="auto" display="inline" enable-background="accumulate" filter="url(#filter871)" image-rendering="auto" opacity="1" overflow="visible" paint-order="normal" shape-rendering="auto" text-rendering="auto" transform="matrix(0.98858631,0,0,0.98858631,0.45298161,2.9368836)" vector-effect="none" visibility="visible"/><g id="g4118" transform="matrix(0.95178706,0.0998091,0.0998091,0.83653745,-22.810503,34.273649)"><path id="path881" fill="url(#radialGradient4129)" fill-opacity="1" fill-rule="evenodd" stroke="none" stroke-linecap="butt" stroke-linejoin="miter" stroke-opacity="1" stroke-width=".22" d="m 52.407778,232.91929 -15.947366,27.62165 7.725259,-1.89702 0.602502,7.15894 6.501079,-3.05769 0.770618,-20.54496 -0.507929,-0.82643 0.557516,-0.49704 z m -0.741259,-0.3566 -6.689348,4.19522 -0.17366,0.71972 -0.93017,-0.0278 -17.446654,10.94099 0.6025,7.15895 6.501081,-3.05768 2.219762,7.63877 z"/><path id="path4080" fill="#000" fill-opacity=".302" fill-rule="evenodd" stroke="none" stroke-linecap="butt" stroke-linejoin="miter" stroke-opacity="1" stroke-width=".22" d="m 51.666737,232.56259 -6.689426,4.19528 -0.173843,0.71973 -0.930016,-0.0277 -17.446953,10.9409 0.03516,0.41748 17.38505,-10.90194 0.930011,0.0277 0.173844,-0.71974 6.318026,-3.96231 z m 0.740977,0.35668 -15.94736,27.6215 0.275997,-0.0675 15.644621,-27.09752 -0.281442,7.51023 0.0101,-0.009 z m -0.683986,8.73416 -0.198335,0.17679 0.507654,0.82657 -0.753666,20.09302 0.01,-0.005 L 52.06,242.19995 Z"/><path id="path4089" fill="#fff" fill-opacity=".407" fill-rule="evenodd" stroke="none" stroke-linecap="butt" stroke-linejoin="miter" stroke-opacity="1" stroke-width=".22" d="m 51.651378,232.81881 -0.20824,0.13062 -15.693102,27.18128 -2.219526,-7.63852 -6.501355,3.0575 -0.582829,-6.92463 -0.03469,0.0217 0.602531,7.15895 6.501354,-3.0575 2.219527,7.63852 z m 0.452531,8.06282 -0.55214,0.49238 0.09621,0.15681 0.446322,-0.39808 z m -7.918238,17.76229 -7.570571,1.85873 -0.169522,0.29403 7.725094,-1.89683 0.602532,7.15895 6.500888,-3.05746 0.0097,-0.25361 -6.495642,3.05514 z"/></g><text id="text4133" x="21.549" y="277.901" fill="url(#linearGradient4162)" fill-opacity="1" stroke="none" stroke-dasharray="none" stroke-dashoffset="0" stroke-linecap="butt" stroke-linejoin="miter" stroke-miterlimit="4" stroke-opacity="1" stroke-width="3.769" display="none" font-family="DINCond-Medium" font-size="17.067" font-stretch="normal" font-style="normal" font-variant="normal" font-weight="normal" letter-spacing="0" opacity="1" vector-effect="none" word-spacing="0" xml:space="preserve" style="line-height:1000%;-inkscape-font-specification:DINCond-Medium"><tspan id="tspan4131" x="21.549" y="277.901" fill="url(#linearGradient4162)" fill-opacity="1" stroke="none" stroke-dasharray="none" stroke-dashoffset="0" stroke-linecap="butt" stroke-linejoin="miter" stroke-miterlimit="4" stroke-opacity="1" stroke-width="3.769" font-family="DINCond-Medium" font-stretch="normal" font-style="normal" font-variant="normal" font-weight="normal" vector-effect="none" style="-inkscape-font-specification:DINCond-Medium">PLANE</tspan></text><path id="path4174" fill="url(#linearGradient4185)" fill-opacity="1" stroke="none" stroke-dasharray="none" stroke-dashoffset="0" stroke-linecap="butt" stroke-linejoin="miter" stroke-miterlimit="4" stroke-opacity="1" stroke-width="3.769" d="m 22.640995,265.74969 v 12.1512 h 1.467611 v -5.05137 h 1.262972 c 2.013868,0 2.884062,-1.05843 2.884062,-3.56723 0,-2.69654 -1.040861,-3.5326 -2.884062,-3.5326 z m 7.433139,0 v 12.1512 h 4.693253 v -1.31413 h -3.225644 v -10.83707 z m 8.426357,0 -2.833417,12.1512 h 1.53634 l 0.580326,-2.86701 h 2.81585 l 0.580324,2.86701 h 1.552879 l -2.815849,-12.1512 z m 5.406906,0 v 12.1512 h 1.46761 v -8.31112 l 3.140376,8.31112 h 1.331185 v -12.1512 h -1.467609 l 0.01704,8.31164 -3.123322,-8.31164 z m 8.133353,0 v 12.1512 h 4.693253 v -1.31413 h -3.225641 v -4.12999 h 2.782257 v -1.31413 h -2.782257 v -4.07882 h 3.225641 v -1.31413 z m -27.932144,1.31413 h 1.297078 c 1.126402,0 1.382344,0.90432 1.382344,2.23553 0,1.33119 -0.255942,2.23603 -1.382344,2.23603 h -1.297078 z m 15.091584,1.05782 1.12603,5.59811 h -2.269628 z" font-family="DINCond-Medium" font-size="medium" font-stretch="normal" font-style="normal" font-variant="normal" font-weight="normal" letter-spacing="0" vector-effect="none" word-spacing="0" style="line-height:1000%;-inkscape-font-specification:DINCond-Medium"/></g></svg>