<svg xmlns="http://www.w3.org/2000/svg" xmlns:svg="http://www.w3.org/2000/svg" id="Foreground" width="32" height="32" x="0" y="0" enable-background="new 0 0 16 16" version="1.0" viewBox="0 0 32 32" xml:space="preserve"><metadata id="metadata2399"/><defs id="defs2397"><linearGradient id="linearGradient3173"><stop id="stop3175" offset="0" stop-color="#c4c4c4" stop-opacity="1"/><stop id="stop3177" offset="1" stop-color="#fff" stop-opacity="1"/></linearGradient></defs><path id="path2394-32" fill="#fff" fill-opacity="1" fill-rule="nonzero" stroke="#2975c4" stroke-dasharray="none" stroke-dashoffset="0" stroke-linecap="butt" stroke-linejoin="miter" stroke-miterlimit="4" stroke-opacity="1" stroke-width="4" d="m 4.4362021,15.860384 c 0,-6.410121 5.1728276,-11.60728 11.5529359,-11.60728 6.380109,0 11.552937,5.197159 11.552937,11.60728 0,6.410122 -5.172828,11.607281 -11.552937,11.607281 -6.3801083,0 -11.5529359,-5.197159 -11.5529359,-11.607281 z" clip-rule="evenodd" color="#000" display="inline" enable-background="accumulate" overflow="visible" visibility="visible" style="marker:none"/><path id="path2561" fill="#4a90d9" fill-opacity="1" fill-rule="nonzero" stroke="none" stroke-dasharray="none" stroke-dashoffset="0" stroke-linecap="butt" stroke-linejoin="miter" stroke-miterlimit="4" stroke-opacity="1" stroke-width="1.749" d="m 6.4654832,15.001321 c -0.025906,0.288419 -0.044417,0.579469 -0.044417,0.874662 0,5.313347 4.2883848,9.621271 9.5768588,9.621271 5.288466,0 9.575143,-4.307924 9.575143,-9.621271 0,-0.295193 -0.01852,-0.586243 -0.04441,-0.874662 -0.440376,4.903023 -4.536071,8.746611 -9.53073,8.746611 -4.994659,0 -9.0920617,-3.843588 -9.5324391,-8.746611 z" color="#000" display="inline" enable-background="accumulate" opacity=".499" overflow="visible" visibility="visible" style="marker:none"/><path id="path27279-0-5" fill="#4a90d9" fill-opacity="1" fill-rule="nonzero" stroke="none" stroke-width="1.88" d="m 11.718386,11.639547 h 1.055207 c 0.01091,-1.26e-4 0.02193,-4.86e-4 0.03298,0 0.269026,0.01183 0.538019,0.135679 0.725455,0.329752 l 2.407192,2.407192 2.440166,-2.407192 c 0.28029,-0.243226 0.471333,-0.322366 0.725455,-0.329752 h 1.055207 v 1.055208 c 0,0.302285 -0.03623,0.581049 -0.263801,0.791405 l -2.407191,2.407191 2.374217,2.374216 c 0.198577,0.198559 0.296768,0.478484 0.296775,0.758432 v 1.055206 h -1.055211 c -0.279947,-10e-6 -0.559877,-0.09824 -0.75843,-0.296777 l -2.407192,-2.407192 -2.407192,2.407192 c -0.198551,0.198579 -0.478493,0.296777 -0.758429,0.296777 H 11.71839 v -1.055206 c -3e-6,-0.279936 0.0982,-0.559873 0.296777,-0.758432 L 14.422359,15.893351 12.015167,13.48616 C 11.79279,13.280784 11.69527,12.991003 11.71839,12.694755 Z" color="#bebebe" direction="ltr" display="inline" enable-background="new" font-family="Andale Mono" font-size="medium" font-stretch="normal" font-style="normal" font-variant="normal" font-weight="normal" letter-spacing="normal" overflow="visible" text-anchor="start" text-decoration="none" visibility="visible" word-spacing="normal" writing-mode="lr-tb" style="line-height:normal;-inkscape-font-specification:'Andale Mono';text-indent:0;text-align:start;text-decoration-line:none;text-transform:none;marker:none"/></svg>